<svg width="187" height="64" viewBox="0 0 187 64" fill="none" xmlns="http://www.w3.org/2000/svg">
<path fill-rule="evenodd" clip-rule="evenodd" d="M185.658 24.6571C184.821 22.2261 183.657 20.0266 182.02 18.1082C180.384 16.1899 178.383 14.8007 176.019 13.7588C175.346 13.4281 174.528 13.0973 173.836 12.932C173.836 12.932 173.582 12.7997 173.345 12.7997C173.236 12.7997 173.109 12.7997 172.982 12.6839C172.891 12.6839 172.763 12.6839 172.763 12.5681L171.036 12.2374C169.763 12.0389 168.126 11.9397 166.234 12.0389C163.434 12.1547 160.96 12.7004 158.778 13.6265C156.414 14.6849 154.413 16.1733 152.776 17.9594C151.139 19.8777 149.975 21.978 149.139 24.5248C148.339 26.9393 147.975 29.6845 147.975 32.4298C147.975 35.2908 148.339 37.9368 149.157 40.3678C149.994 42.7988 151.285 44.9983 152.794 46.8175C153.977 48.0909 155.25 49.1327 156.795 50.0919C157.487 50.5219 158.069 50.8361 158.796 51.1503H158.887C158.887 51.1503 158.996 51.1503 158.996 51.2495C159.074 51.2495 159.11 51.2828 159.144 51.3136C159.173 51.3404 159.2 51.3653 159.251 51.3653C160.433 51.8945 161.724 52.1922 163.124 52.4237C167.216 53.1513 170.726 52.6387 170.726 52.6387C172.6 52.4237 174.364 51.8945 176.001 51.2495C178.456 50.1911 180.438 48.7193 182.093 46.9167C183.73 45.1306 184.894 42.8981 185.731 40.467C186.531 38.036 186.894 35.39 186.894 32.529C186.894 29.6845 186.422 27.0385 185.712 24.5909L185.658 24.6571ZM158.25 26.9724C158.723 25.3186 159.305 23.7145 160.124 22.4411C160.942 21.1842 161.997 20.1258 163.161 19.3981C164.343 18.654 165.743 18.2405 167.253 18.2405C168.781 18.2405 170.072 18.5382 171.254 19.2824C172.418 20.01 173.345 20.9361 174.164 22.1269C174.982 23.4002 175.582 24.7729 176.037 26.4597C176.528 28.1465 176.764 29.8499 176.764 31.7517V32.3801C176.764 34.282 176.528 36.1838 176.182 37.8706C175.71 39.574 175.128 41.0458 174.309 42.3358C173.491 43.5926 172.436 44.5353 171.254 45.2795C170.09 46.0237 168.708 46.3379 167.162 46.3379C165.634 46.3379 164.252 46.0071 163.07 45.2795C161.888 44.5353 160.833 43.5926 160.015 42.3027C159.178 41.0458 158.596 39.574 158.123 37.8706C157.668 36.1838 157.541 34.282 157.541 32.3801C157.668 30.561 157.905 28.6757 158.269 26.9889L158.25 26.9724ZM132.589 53.0025L128.042 57.7488L127.569 58.1788L128.042 64H135.062L142.446 56.4919V32.6117L142.228 30.7925L132.589 35.3238V53.0025Z" fill="white"/>
<path fill-rule="evenodd" clip-rule="evenodd" d="M73.4035 10.8613L68.846 6.24851L68.2444 5.85593L68.7184 0L75.7369 0.0981441L83.284 7.52438V31.6842L83.0652 33.0255L73.4035 28.4454V10.8613ZM138.083 17.3551C139.723 19.2526 140.89 21.4281 141.729 23.8327L141.765 23.7672C142.585 26.1881 142.95 28.8053 142.95 31.6187C142.95 34.4486 142.585 37.0657 141.783 39.4703C140.945 41.8748 139.778 44.083 138.137 45.8496C136.497 47.6326 134.491 49.0884 132.03 50.1353C130.39 50.7732 128.621 51.2966 126.744 51.5093C126.744 51.5093 123.225 52.0164 119.124 51.2966C117.72 51.0676 116.426 50.7732 115.259 50.2498C115.193 50.2498 115.161 50.2189 115.13 50.1892C115.102 50.1617 115.075 50.1353 115.022 50.1353C115.022 50.0371 114.894 50.0371 114.894 50.0371H114.803C114.074 49.7263 113.491 49.4155 112.798 48.9902C111.267 48.0415 109.972 47.011 108.787 45.7515C107.274 43.9522 105.98 41.7767 105.141 39.3721C104.339 36.9676 103.975 34.3504 103.975 31.5206C103.975 28.8053 104.321 26.09 105.123 23.7018C105.962 21.1828 107.129 19.1054 108.769 17.2079C110.41 15.4413 112.415 13.9692 114.785 12.9223C116.973 12.0063 119.452 11.4665 122.259 11.352C124.155 11.2539 125.796 11.352 127.072 11.5483L128.804 11.8754C128.804 11.9899 128.931 11.9899 129.022 11.9899C129.168 12.1044 129.278 12.1044 129.387 12.1044C129.624 12.1044 129.879 12.2353 129.879 12.2353C130.572 12.3989 131.392 12.726 132.067 13.0532C134.437 14.0837 136.442 15.4577 138.083 17.3551ZM116.243 21.6408C115.423 22.9003 114.84 24.4869 114.384 26.1227L114.402 26.139C113.934 27.7863 113.804 29.6248 113.678 31.4028V31.4029L113.673 31.4715C113.673 33.3526 113.782 35.2337 114.256 36.9022C114.73 38.587 115.314 40.0428 116.134 41.2859C116.954 42.5618 118.012 43.4942 119.178 44.2303C120.363 44.95 121.767 45.2771 123.317 45.2771C124.83 45.2771 126.252 44.9663 127.418 44.2303C128.585 43.4942 129.642 42.5618 130.444 41.3187C131.265 40.0428 131.866 38.587 132.322 36.9022C132.687 35.2337 132.942 33.3526 132.942 31.4715V30.85C132.942 28.9689 132.687 27.2841 132.213 25.6156C131.739 23.9472 131.155 22.5895 130.335 21.33C129.515 20.1522 128.567 19.2362 127.418 18.5165C126.233 17.7804 124.939 17.486 123.408 17.486C121.858 17.486 120.473 17.8949 119.306 18.631C118.121 19.3507 117.064 20.3976 116.243 21.6408ZM88.5342 11.5156H98.3782V52H88.5342V11.5156Z" fill="white"/>
<path fill-rule="evenodd" clip-rule="evenodd" d="M93.3744 2C90.8724 2 88.8418 3.8681 88.8418 6.16987C88.8418 8.58839 90.8724 10.4398 93.3744 10.3397C95.8764 10.3397 97.9069 8.47163 97.9069 6.16987C97.9069 3.8681 95.8764 2 93.3744 2ZM34.0704 18.9964C35.7021 20.9312 36.8624 23.1496 37.6964 25.6014L37.7327 25.5347C38.5485 28.0033 38.9111 30.672 38.9111 33.5409C38.9111 36.4264 38.5485 39.0951 37.7508 41.547C36.9168 43.9989 35.7565 46.2506 34.1248 48.052C32.493 49.8701 30.4987 51.3545 28.0511 52.422C26.4194 53.0725 24.6608 53.6063 22.7934 53.8231C22.7934 53.8231 19.2942 54.3402 15.2149 53.6063C13.8189 53.3728 12.5316 53.0725 11.3532 52.5388C11.2444 52.5388 11.2444 52.5388 11.1356 52.422C11.1356 52.322 11.0087 52.322 11.0087 52.322H10.918C10.1928 52.005 9.61267 51.6881 8.92372 51.2545C7.40078 50.2871 6.11353 49.2363 4.93507 47.9519C3.30335 46.1172 2.14301 43.9989 1.30902 41.4469C0.493159 38.9951 0.130554 36.3263 0.130554 33.4408C0.130554 30.672 0.493159 27.9032 1.29089 25.468C2.12488 22.8994 3.28522 20.7811 4.91694 18.8463C6.54866 17.0449 8.54299 15.5437 10.8999 14.4762C13.0755 13.5422 15.5413 12.9918 18.3333 12.875C20.2189 12.7749 21.8506 12.875 23.1197 13.0752L24.8421 13.4088C24.8421 13.5255 24.969 13.5255 25.0596 13.5255C25.2047 13.6423 25.3135 13.6423 25.4222 13.6423C25.6579 13.6423 25.9118 13.7757 25.9118 13.7757C26.6007 13.9425 27.4166 14.2761 28.0874 14.6097C30.4443 15.6605 32.4386 17.0616 34.0704 18.9964ZM81.9523 25.6014C81.1183 23.1496 79.958 20.9312 78.3263 18.9964C76.6946 17.0616 74.7002 15.6605 72.3433 14.6097C71.6725 14.2761 70.8566 13.9425 70.1677 13.7757C70.1677 13.7757 69.9139 13.6423 69.6782 13.6423C69.5694 13.6423 69.4425 13.6423 69.3156 13.5255C69.2068 13.5255 69.098 13.5255 69.098 13.4088L67.3575 13.0752C66.0884 12.875 64.4566 12.7749 62.5892 12.875C59.7972 12.9918 57.3315 13.5422 55.1558 14.4762C52.7989 15.5437 50.8046 17.0449 49.1729 18.8463C47.5411 20.7811 46.3808 22.8994 45.5468 25.468C44.7491 27.9032 44.3865 30.672 44.3865 33.4408C44.3865 36.3263 44.7491 38.9951 45.5649 41.4469C46.3989 43.8988 47.668 46.1172 49.191 47.9519C50.3695 49.2363 51.6386 50.2871 53.1796 51.2545C53.8686 51.6881 55.2646 52.322 55.2646 52.322C55.2646 52.322 55.3734 52.322 55.3734 52.422C55.4511 52.422 55.4872 52.4556 55.5207 52.4867C55.5497 52.5136 55.5767 52.5388 55.6272 52.5388C56.8057 53.0725 58.0748 53.3728 59.489 53.6063C63.5683 54.3402 67.0674 53.8231 67.0674 53.8231C68.9348 53.6063 70.6935 53.0725 72.3252 52.422C74.7728 51.3545 76.749 49.8701 78.3988 48.052C80.0305 46.2506 81.1909 43.9989 82.0249 41.547C82.8226 39.0951 83.1671 36.4264 83.1671 33.5409C83.1671 30.672 82.7138 28.0033 82.0067 25.5347L81.9523 25.6014ZM54.6301 27.9366C55.1014 26.2686 55.6816 24.6507 56.4975 23.3664C57.3133 22.0988 58.3649 21.0313 59.5252 20.2974C60.7037 19.5468 62.0997 19.1298 63.6045 19.1298C65.1275 19.1298 66.4147 19.43 67.5932 20.1806C68.7535 20.9145 69.6782 21.8486 70.494 23.0495C71.3099 24.3338 71.8901 25.7182 72.3614 27.4195C72.851 29.1208 73.0866 30.8388 73.0866 32.7569V33.3908C73.0866 35.3089 72.851 37.227 72.5065 38.9283C72.0351 40.6463 71.4549 42.1308 70.6391 43.4318C69.8232 44.6994 68.7716 45.6502 67.5932 46.4007C66.4328 47.1513 65.0549 47.4682 63.5139 47.4682C61.9909 47.4682 60.613 47.1346 59.4346 46.4007C58.2561 45.6502 57.2046 44.6994 56.3887 43.3984C55.5547 42.1308 54.9745 40.6463 54.5031 38.9283C54.0499 37.227 53.923 35.3089 53.923 33.3908C54.0499 31.556 54.2856 29.6546 54.6482 27.9533L54.6301 27.9366ZM10.5011 27.9366C10.9543 26.2686 11.5345 24.6507 12.3503 23.3664C13.1662 22.0988 14.2178 21.0313 15.3962 20.2974C16.5566 19.5468 17.9345 19.1298 19.4755 19.1298C20.9985 19.1298 22.2857 19.43 23.4642 20.1806C24.6064 20.9145 25.5492 21.8486 26.365 23.0495C27.1809 24.3338 27.761 25.7182 28.2324 27.4195C28.7038 29.1208 28.9576 30.8388 28.9576 32.7569L28.9214 33.3908C28.9214 35.3089 28.7038 37.227 28.3412 38.9283C27.888 40.6463 27.2897 42.1308 26.4738 43.4318C25.6761 44.6994 24.6245 45.6502 23.4642 46.4007C22.3038 47.1513 20.8897 47.4682 19.3849 47.4682C17.8438 47.4682 16.4478 47.1346 15.2693 46.4007C14.109 45.6502 13.0574 44.6994 12.2416 43.3984C11.5163 42.3476 10.9724 40.8632 10.4829 39.0618C10.0115 37.3438 9.88463 35.3923 9.88463 33.4908C9.88463 31.5727 10.0115 29.6546 10.4648 27.9533L10.5011 27.9366Z" fill="white"/>
</svg>
